<svg style="width:24px;height:24px" viewBox="0 0 24 24">
  <path d="m 11.829936,4.3554333 c -2.7149046,0.017273 -5.3264087,0.2459925 -6.8483298,0.789907 0,0 -3.0183567,1.050757 -3.0183567,4.6356607 0,0.820902 -0.020537,1.802507 0.012871,2.843415 0.1096072,3.50584 0.825947,6.960997 4.991265,7.818936 1.9205358,0.395585 3.5694185,0.47833 4.8974105,0.421526 2.408279,-0.1039 3.760254,-0.668735 3.760254,-0.668735 l -0.07955,-1.35973 c 0,0 -1.720928,0.422209 -3.653706,0.370748 -1.9149318,-0.05112 -3.9364374,-0.160631 -4.2461531,-1.99021 -0.028603,-0.160708 -0.042905,-0.332592 -0.042905,-0.513065 0,0 1.8797543,0.357594 4.2620591,0.442531 1.456706,0.052 2.822732,-0.06648 4.210219,-0.19532 2.660788,-0.24725 4.977536,-1.522981 5.268715,-2.688717 0.458797,-1.836346 0.421004,-4.481379 0.421004,-4.481379 0,-3.5849037 -3.018177,-4.6356607 -3.018177,-4.6356607 C 17.224751,4.6014258 14.611524,4.372706 11.896617,4.3554333 Z m -3.0725237,2.801123 c 1.1308588,0 1.9871457,0.3382828 2.5533747,1.0148594 l 0.550434,0.7179835 0.550614,-0.7179835 c 0.566114,-0.6765766 1.422402,-1.0148594 2.553374,-1.0148594 0.977316,0 1.764847,0.2673664 2.366202,0.7889334 0.582933,0.5215667 0.873114,1.226462 0.873114,2.1136053 v 4.340734 h -2.209958 v -4.213023 c 0,-0.8881244 -0.480033,-1.3390028 -1.440531,-1.3390028 -1.061982,0 -1.594273,0.5348163 -1.594273,1.5921948 v 2.306006 h -2.196905 v -2.306006 c 0,-1.0573785 -0.532294,-1.5921948 -1.5942748,-1.5921948 -0.9604962,0 -1.4407086,0.4508784 -1.4407086,1.3390028 v 4.213023 H 5.5179169 v -4.340734 c 0,-0.8871433 0.2902443,-1.5920386 0.8732925,-2.1136053 0.6012402,-0.521567 1.3887732,-0.7889334 2.3662029,-0.7889334 z" />
</svg>
